<?xml version="1.0" standalone="no"?>
<!DOCTYPE svg PUBLIC "-//W3C//DTD SVG 20010904//EN"
 "http://www.w3.org/TR/2001/REC-SVG-20010904/DTD/svg10.dtd">
<svg version="1.0" xmlns="http://www.w3.org/2000/svg"
 width="1792.000000pt" height="1792.000000pt" viewBox="0 0 1792.000000 1792.000000"
 preserveAspectRatio="xMidYMid meet">

<g transform="translate(0.000000,1792.000000) scale(0.100000,-0.100000)"
fill="#000000" stroke="none">
<path d="M8650 16634 c-641 -34 -1168 -112 -1665 -245 -1067 -285 -2037 -784
-2905 -1493 -164 -134 -485 -424 -596 -538 -571 -587 -1094 -1328 -1435 -2033
-432 -894 -661 -1740 -746 -2760 -21 -254 -24 -913 -5 -1160 62 -801 214
-1498 475 -2180 515 -1348 1483 -2618 2642 -3466 588 -431 1243 -778 1945
-1030 l175 -63 130 -1 c123 0 133 2 187 28 72 35 149 119 180 195 l23 57 -4
760 c-2 418 -4 761 -5 762 -1 1 -78 -11 -171 -28 -156 -28 -194 -31 -460 -36
-359 -7 -624 15 -895 74 -293 63 -599 236 -791 447 -118 130 -167 215 -289
501 -127 298 -208 443 -373 664 -135 180 -257 295 -414 387 -43 26 -100 64
-128 86 -71 55 -163 164 -192 227 -24 50 -25 55 -10 86 21 45 82 71 195 86
104 14 246 2 381 -32 130 -33 352 -151 506 -268 200 -151 332 -306 490 -571
21 -36 72 -109 113 -163 246 -323 580 -532 920 -578 103 -14 374 -6 533 15
180 25 398 85 561 155 45 19 47 21 57 78 57 296 123 486 236 673 51 85 94 139
178 227 l70 71 -44 6 c-24 4 -84 11 -134 17 -211 24 -541 83 -730 130 -311 78
-528 157 -822 299 -404 196 -630 354 -888 622 -278 289 -454 588 -631 1078
-259 711 -329 1755 -163 2415 114 450 331 866 630 1204 l69 78 -31 89 c-181
533 -183 1015 -8 1624 56 196 103 321 125 333 10 6 78 13 150 15 206 7 397
-38 744 -173 428 -166 719 -315 1083 -552 l129 -84 136 36 c562 148 1140 219
1782 219 642 0 1220 -71 1782 -219 l137 -36 188 119 c261 165 377 231 608 343
502 244 923 372 1160 354 148 -11 152 -14 192 -125 79 -214 135 -428 180 -680
26 -153 26 -618 -1 -770 -23 -131 -58 -266 -102 -393 l-34 -99 68 -76 c138
-155 276 -355 380 -553 307 -579 400 -1216 306 -2093 -56 -529 -202 -1036
-418 -1451 -122 -235 -241 -404 -412 -584 -304 -320 -750 -599 -1279 -799
-308 -116 -744 -217 -1155 -267 -69 -8 -143 -17 -165 -20 l-40 -5 76 -79 c256
-267 394 -626 429 -1116 6 -81 10 -610 10 -1260 0 -1228 -2 -1181 59 -1290 37
-67 116 -130 188 -151 43 -12 82 -15 162 -11 98 4 119 9 281 67 805 286 1548
701 2225 1244 617 495 1241 1202 1690 1917 482 765 789 1510 989 2399 69 305
126 711 158 1115 19 246 16 905 -5 1160 -53 638 -148 1134 -324 1700 -435
1399 -1316 2703 -2453 3631 -963 786 -2060 1318 -3240 1573 -310 67 -662 117
-1030 147 -174 14 -777 26 -920 18z"/>
</g>
</svg>
