<?xml version="1.0" standalone="no"?>
<!DOCTYPE svg PUBLIC "-//W3C//DTD SVG 20010904//EN"
 "http://www.w3.org/TR/2001/REC-SVG-20010904/DTD/svg10.dtd">
<svg version="1.0" xmlns="http://www.w3.org/2000/svg"
 width="500.000000pt" height="500.000000pt" viewBox="0 0 500.000000 500.000000"
 preserveAspectRatio="xMidYMid meet">

<g transform="translate(0.000000,500.000000) scale(0.100000,-0.100000)"
fill="#000000" stroke="none">
<path d="M2335 4084 c-393 -57 -696 -205 -964 -472 -216 -216 -371 -507 -432
-811 -54 -273 -26 -597 76 -866 101 -266 303 -534 535 -708 473 -356 1106
-417 1641 -159 454 220 762 617 871 1124 30 141 32 434 4 583 -121 653 -603
1145 -1258 1286 -90 20 -394 34 -473 23z m96 -40 c-43 -19 -140 -85 -164 -112
-18 -19 -22 -20 -64 -7 -25 8 -82 17 -126 21 l-80 7 34 18 c87 44 277 86 399
87 l35 0 -34 -14z m241 -18 c52 -13 118 -34 148 -47 l53 -23 -84 -22 c-46 -12
-126 -40 -177 -63 -88 -38 -97 -40 -145 -31 -29 5 -82 22 -120 37 l-68 26 28
30 c39 41 106 78 177 98 80 23 78 23 188 -5z m221 -28 c62 -25 76 -34 57 -36
-14 -2 -59 13 -100 32 -94 44 -66 47 43 4z m81 -99 c28 -17 75 -49 104 -71
l54 -40 -50 -23 c-27 -13 -64 -38 -82 -57 l-33 -35 -86 37 c-72 31 -133 53
-301 107 -40 13 218 101 329 112 8 0 37 -13 65 -30z m171 -36 c98 -67 99 -68
66 -71 -25 -3 -42 4 -71 27 -20 16 -63 48 -95 70 -55 39 -57 41 -29 41 19 0
62 -22 129 -67z m-952 38 c21 -7 35 -16 33 -20 -3 -4 -56 -11 -118 -14 -62 -4
-158 -16 -212 -27 -55 -11 -101 -18 -103 -16 -2 2 27 25 64 50 l68 47 115 -4
c63 -3 132 -10 153 -16z m1027 -22 c66 -31 175 -107 167 -116 -10 -9 -93 21
-117 43 -14 12 -52 40 -84 63 -70 49 -56 53 34 10z m-1405 -2 c-16 -12 -46
-36 -65 -53 -19 -18 -64 -43 -100 -58 l-65 -26 49 45 c26 25 80 61 120 80 81
40 104 44 61 12z m475 -7 c12 -8 11 -10 -7 -10 -12 0 -25 5 -28 10 -8 13 15
13 35 0z m-100 -35 c0 -3 -9 -23 -19 -44 -28 -53 -59 -155 -70 -229 -9 -58
-15 -68 -77 -137 -91 -102 -111 -107 -230 -61 -90 35 -162 51 -267 62 l-58 6
27 46 c37 65 155 220 196 259 55 52 249 99 426 102 39 0 72 -1 72 -4z m228
-21 c29 -12 44 -34 23 -34 -13 0 -177 -124 -253 -192 -61 -54 -68 -58 -68 -36
0 38 38 158 71 226 l31 63 81 -7 c45 -3 97 -12 115 -20z m280 -59 c56 -19 136
-50 177 -69 l74 -34 -24 -61 c-14 -33 -25 -67 -25 -76 0 -23 -13 -18 -51 21
-45 47 -210 180 -276 223 -29 18 -53 35 -53 38 0 10 75 -8 178 -42z m-73 -66
c39 -26 113 -85 165 -131 93 -82 95 -85 98 -132 l3 -48 -28 7 c-91 23 -490 23
-690 0 l-63 -8 0 56 0 55 73 64 c97 86 149 127 231 182 l69 46 36 -22 c20 -12
68 -43 106 -69z m638 -18 c30 -33 76 -87 101 -120 l45 -59 -46 -19 -47 -19
-90 61 c-50 34 -124 81 -164 104 -40 24 -71 48 -69 54 5 17 95 76 131 85 38
11 61 -4 139 -87z m138 -28 l114 -116 -30 -13 c-16 -7 -35 -13 -40 -14 -6 0
-33 30 -62 68 -28 37 -79 94 -112 127 -34 33 -61 62 -61 65 0 3 18 4 39 2 35
-3 52 -17 152 -119z m40 51 c15 -14 74 -114 67 -114 -2 0 -39 36 -83 81 -77
78 -79 80 -40 64 21 -8 47 -22 56 -31z m-1818 4 c-40 -42 -139 -182 -165 -231
-11 -22 -21 -37 -24 -35 -8 9 29 114 62 179 30 56 42 69 87 91 69 35 77 34 40
-4z m-93 18 c0 -2 -8 -10 -17 -17 -16 -13 -17 -12 -4 4 13 16 21 21 21 13z
m2070 -135 l45 -40 -45 0 -45 0 -27 60 -27 60 27 -19 c15 -11 47 -38 72 -61z
m-2144 6 c-13 -28 -31 -80 -41 -114 -15 -55 -21 -63 -47 -68 -48 -11 -132 -51
-166 -80 -18 -15 -32 -24 -32 -20 0 13 84 130 133 184 44 48 161 151 172 151
2 0 -7 -24 -19 -53z m1718 -67 c58 -39 106 -74 106 -78 0 -4 -40 -27 -88 -52
-79 -41 -91 -45 -127 -38 -52 11 -145 100 -145 138 0 29 28 118 42 137 13 16
72 -14 212 -107z m530 -41 c24 -27 27 -37 22 -70 -3 -21 -11 -50 -16 -64 -10
-26 -11 -25 -76 64 -36 50 -62 96 -58 102 4 7 24 9 53 5 34 -4 53 -14 75 -37z
m-154 -4 c10 -25 35 -151 44 -220 5 -36 1 -31 -42 50 -27 50 -60 109 -75 133
l-28 42 23 10 c42 16 68 12 78 -15z m-78 -82 c25 -43 56 -98 68 -123 22 -44
20 -42 -76 50 -55 52 -105 100 -113 107 -12 10 -9 15 20 27 19 9 39 15 45 16
5 0 31 -35 56 -77z m-1384 -19 c-2 -2 -24 -6 -48 -10 l-44 -7 45 52 44 51 3
-41 c2 -23 2 -43 0 -45z m879 0 c-3 -3 -18 -4 -32 0 -20 5 -25 12 -25 38 l0
33 32 -32 c18 -18 29 -35 25 -39z m471 -70 c99 -97 111 -112 77 -96 -65 31
-255 99 -318 113 -32 7 -54 16 -50 20 13 13 147 78 161 79 7 0 65 -52 130
-116z m242 -20 c0 -4 -12 -28 -27 -53 l-27 -46 -12 97 c-7 54 -16 108 -19 120
-4 13 14 -7 39 -44 25 -37 46 -70 46 -74z m177 -27 c31 -54 54 -100 52 -102
-8 -7 -123 12 -126 21 -2 5 -18 33 -36 62 l-33 52 20 64 21 63 23 -31 c13 -17
48 -75 79 -129z m-2191 128 c84 -19 178 -56 167 -64 -4 -4 -44 -18 -88 -31
-84 -24 -275 -102 -309 -126 -11 -8 -24 -14 -28 -14 -5 0 -8 31 -8 70 0 55 6
81 27 125 l27 55 76 0 c41 0 102 -7 136 -15z m-321 -166 c-25 -73 -46 -134
-48 -135 -1 -1 -26 -20 -54 -41 -64 -48 -130 -109 -172 -160 l-32 -38 7 65 c6
65 43 222 62 270 27 66 119 145 219 185 55 23 58 23 61 6 2 -11 -17 -79 -43
-152z m1450 150 c50 -6 90 -12 91 -12 1 -1 4 -32 7 -69 l6 -66 -67 -44 c-100
-65 -311 -215 -365 -261 l-48 -40 -57 64 c-73 82 -103 112 -181 180 l-63 56
-5 86 c-6 84 -5 86 18 92 100 24 510 33 664 14z m221 -40 c22 -18 18 -24 -38
-58 -59 -37 -68 -32 -68 40 l0 46 46 -8 c26 -5 53 -14 60 -20z m-926 -28 c0
-27 3 -63 6 -81 l7 -32 -77 53 c-42 29 -76 56 -76 60 0 13 26 27 70 37 72 16
70 17 70 -37z m1146 -17 c105 -31 338 -123 332 -130 -2 -1 -71 -16 -154 -33
-82 -17 -157 -33 -166 -36 -11 -5 -31 16 -73 77 -32 46 -67 93 -78 105 -21 24
-17 53 7 53 8 0 68 -16 132 -36z m-1332 8 c2 -4 -11 -28 -31 -52 -94 -120
-258 -410 -323 -573 l-22 -57 -31 18 c-27 15 -34 28 -49 92 -23 101 -48 278
-48 344 l0 54 78 39 c70 37 195 87 312 126 50 17 106 21 114 9z m1227 -113
c39 -55 69 -102 66 -105 -5 -6 -195 -63 -209 -64 -6 0 -37 88 -57 163 l-10 38
62 39 c33 21 64 37 69 34 4 -3 40 -50 79 -105z m-1087 28 l59 -42 18 -89 c20
-101 50 -207 81 -284 12 -31 17 -57 12 -62 -5 -4 -85 -43 -179 -85 -93 -42
-202 -94 -241 -116 -39 -21 -76 -39 -82 -39 -6 0 -40 22 -75 49 -36 27 -70 50
-77 53 -9 3 -1 31 25 93 67 165 173 350 302 533 l44 62 27 -16 c15 -8 54 -34
86 -57z m1682 12 c21 -33 23 -43 12 -50 -13 -9 -98 -13 -98 -4 0 5 54 95 57
95 2 0 14 -19 29 -41z m-2365 -92 c-18 -18 -21 -3 -8 39 l12 39 3 -34 c2 -18
-1 -38 -7 -44z m1567 -9 c13 -46 25 -90 28 -99 5 -14 -23 -26 -153 -69 -87
-29 -198 -68 -246 -86 -49 -19 -92 -34 -95 -34 -4 0 -13 9 -19 19 -11 18 -1
28 115 114 124 92 332 235 342 236 3 1 15 -36 28 -81z m-625 -138 c53 -55 97
-104 96 -108 0 -4 -36 -35 -80 -70 l-79 -63 -11 28 c-42 107 -99 312 -99 356
0 16 6 14 38 -12 21 -16 82 -75 135 -131z m1497 100 c37 -73 37 -81 3 -48 -16
14 -57 44 -92 67 l-64 41 61 0 62 0 30 -60z m117 35 c36 -24 39 -68 7 -123
l-28 -47 -42 90 c-23 50 -43 94 -43 99 -1 12 80 -2 106 -19z m-337 9 c0 -10
-123 -165 -174 -219 -26 -27 -49 -45 -52 -39 -2 6 -29 53 -59 105 l-53 94 36
8 c206 48 302 64 302 51z m-2200 -134 c10 -102 44 -292 57 -326 5 -14 2 -16
-18 -11 -13 4 -53 12 -88 19 l-64 12 6 85 c10 138 45 293 70 313 12 9 23 16
24 15 1 -1 6 -49 13 -107z m2215 28 c-7 -83 -25 -201 -46 -297 -9 -45 -16 -54
-48 -70 l-37 -19 -46 99 -47 99 71 82 c39 45 88 106 110 135 22 29 43 53 45
53 3 0 2 -37 -2 -82z m185 -3 c30 -24 64 -52 74 -64 20 -22 20 -22 -11 -52
l-30 -31 -28 49 c-15 26 -48 77 -72 112 -41 60 -43 63 -16 46 15 -10 53 -37
83 -60z m-104 -114 c13 -51 24 -99 24 -106 0 -13 -118 -100 -125 -93 -3 2 0
20 5 39 13 50 40 239 41 290 l0 44 15 -40 c9 -22 26 -82 40 -134z m-392 44
l65 -109 -77 -81 c-42 -44 -81 -80 -87 -80 -23 0 -185 269 -185 308 0 8 42 24
108 43 59 17 108 30 109 29 2 -1 32 -50 67 -110z m451 0 l56 -90 -26 -22 c-32
-28 -45 -29 -45 -4 0 17 -37 154 -56 206 -12 35 12 5 71 -90z m-2449 73 c-10
-37 -35 -198 -42 -275 -5 -58 -10 -73 -23 -73 -26 -1 -104 -39 -132 -66 l-26
-25 -7 23 c-13 50 -19 185 -8 205 29 54 210 233 235 233 5 0 7 -10 3 -22z
m2698 -87 c26 -113 22 -120 -29 -56 l-45 55 22 35 c13 19 26 35 30 35 3 0 14
-31 22 -69z m-973 -33 c23 -46 66 -118 95 -161 30 -43 54 -82 54 -86 0 -10
-128 -132 -245 -236 -49 -43 -102 -90 -116 -103 l-26 -23 -71 143 c-39 79
-105 194 -146 257 -42 62 -74 117 -71 121 6 9 13 12 275 104 102 36 191 65
197 65 7 1 31 -36 54 -81z m-1997 -25 c-4 -43 -11 -82 -16 -88 -7 -7 -8 4 -4
30 3 22 8 61 12 88 10 73 14 55 8 -30z m2911 -95 c51 -162 62 -220 46 -255
-12 -27 -14 -25 -51 87 -21 64 -51 143 -68 176 l-31 61 26 26 c15 14 30 24 35
21 4 -3 23 -55 43 -116z m49 23 c36 -59 43 -96 27 -151 -6 -22 -9 -18 -21 30
-7 30 -23 86 -36 123 -27 79 -19 79 30 -2z m-1540 34 c4 -10 -2 -19 -17 -24
-12 -5 -39 -16 -61 -25 -54 -23 -54 -21 0 24 54 43 69 48 78 25z m1395 -62
c35 -71 90 -232 98 -288 5 -40 3 -43 -39 -78 -43 -35 -86 -57 -113 -57 -10 0
-13 26 -14 118 -1 64 -8 160 -16 212 l-15 95 32 28 c18 15 33 27 35 27 1 0 16
-26 32 -57z m-433 -40 c54 -120 55 -113 -24 -156 -38 -20 -72 -37 -74 -37 -3
0 -27 25 -53 55 l-47 56 73 78 c41 44 77 80 82 80 4 1 23 -34 43 -76z m-864
-38 c67 -99 218 -382 218 -408 0 -16 -183 -92 -203 -84 -38 14 -305 478 -294
511 4 13 176 85 197 83 8 -1 45 -47 82 -102z m1197 -80 c6 -60 11 -146 11
-192 l0 -83 -37 0 c-20 0 -62 7 -94 16 l-57 16 -17 64 c-17 64 -17 66 6 149
l24 84 70 45 c83 53 78 58 94 -99z m-2695 -41 c3 -17 0 -39 -8 -53 l-13 -24
-6 34 c-17 96 -19 179 -6 196 12 14 15 8 20 -54 4 -38 9 -83 13 -99z m1231 60
c37 -86 154 -292 216 -376 26 -37 44 -70 40 -72 -16 -10 -176 -68 -333 -121
l-156 -53 -41 85 c-23 47 -66 121 -96 165 -30 44 -55 83 -55 87 0 16 373 351
390 351 4 0 20 -30 35 -66z m-175 -22 c-41 -37 -117 -106 -169 -154 -52 -49
-97 -88 -100 -88 -4 0 -28 22 -55 49 l-48 48 69 38 c77 43 353 173 368 174 6
0 -24 -30 -65 -67z m1967 -53 c6 -75 -4 -179 -18 -179 -5 0 -9 17 -9 38 -1 20
-5 57 -10 82 -11 56 9 185 23 147 5 -12 11 -52 14 -88z m-2641 81 c27 -10 34
-19 51 -78 12 -44 17 -76 12 -92 -5 -14 -15 -51 -24 -83 -15 -52 -22 -61 -76
-97 -88 -61 -85 -61 -97 22 -15 99 -26 312 -18 333 5 15 15 17 64 12 31 -4 71
-11 88 -17z m-173 -142 c3 -84 11 -179 17 -211 10 -52 9 -61 -7 -79 -38 -42
-51 -42 -74 3 -27 55 -83 210 -99 277 -15 66 -3 89 73 132 85 49 83 52 90
-122z m2275 98 c-7 -25 -15 -46 -18 -46 -10 0 -31 65 -21 68 4 1 17 9 27 17
10 7 20 12 22 11 1 -2 -3 -24 -10 -50z m-2543 -211 l-12 -60 -13 74 c-12 71
-8 178 7 218 4 11 12 -21 19 -77 9 -74 9 -108 -1 -155z m2258 196 l49 -50
-154 -77 c-84 -42 -187 -92 -228 -110 l-75 -34 65 57 c36 32 114 104 175 160
60 56 112 102 115 103 3 0 27 -22 53 -49z m-1720 -11 c-5 -19 -23 -29 -23 -12
0 4 -3 18 -7 31 -5 21 -4 22 15 12 14 -7 18 -17 15 -31z m1960 -27 c13 -33 14
-48 5 -75 -6 -18 -14 -37 -18 -41 -6 -7 -121 71 -134 92 -7 11 115 81 125 72
3 -3 13 -25 22 -48z m-1835 -31 c24 -19 40 -38 35 -42 -4 -4 -34 -21 -65 -38
l-58 -32 -16 37 c-19 45 -21 77 -5 117 11 28 11 28 39 11 15 -10 46 -33 70
-53z m1736 -59 c63 -46 75 -60 70 -77 -3 -12 -43 -97 -89 -191 -74 -152 -239
-421 -277 -453 -13 -10 -29 -3 -90 37 -42 27 -79 54 -83 61 -4 6 -16 54 -27
108 -10 53 -37 148 -58 212 -21 63 -36 118 -32 121 4 4 51 25 104 49 53 23
164 75 245 115 81 40 151 74 155 74 3 1 41 -25 82 -56z m-2225 -241 l32 -62
-28 -25 c-16 -13 -31 -20 -35 -17 -12 11 -75 212 -88 277 -9 46 -9 67 0 90 11
29 13 27 50 -85 21 -64 52 -144 69 -178z m2857 172 c4 -55 3 -98 -3 -109 -8
-13 -13 5 -22 79 -12 93 -8 147 9 130 5 -5 12 -50 16 -100z m-2252 22 c25 -30
46 -58 46 -63 0 -12 -148 -158 -154 -152 -17 16 -86 183 -79 190 10 9 125 77
134 78 4 1 27 -23 53 -53z m-230 -1 c5 -16 -1 -25 -24 -39 l-31 -18 7 29 c4
15 11 39 16 53 10 26 18 20 32 -25z m1993 -12 c-3 -2 -12 -1 -20 4 -11 6 -12
14 -5 33 l10 25 10 -28 c6 -16 8 -31 5 -34z m439 -99 l6 -99 -43 -54 c-39 -48
-199 -194 -206 -187 -1 1 6 47 17 102 10 54 22 138 26 187 5 70 10 87 23 87
26 0 114 45 135 69 28 31 34 14 42 -105z m-399 -37 c21 -98 43 -265 43 -336 0
-39 0 -39 -87 -84 -92 -47 -219 -96 -330 -128 -101 -29 -105 -16 -26 94 109
154 215 345 288 520 l28 67 31 -18 c28 -16 33 -27 53 -115z m-2506 -42 c26
-82 26 -88 7 -65 -11 14 -31 46 -44 71 -19 39 -22 56 -17 100 l7 54 9 -35 c6
-19 23 -75 38 -125z m532 51 l44 -100 -91 -109 c-50 -61 -101 -122 -114 -136
l-22 -26 6 75 c6 83 28 229 45 303 9 37 19 53 47 72 20 14 37 23 38 22 1 -1
22 -47 47 -101z m2087 58 l63 -7 -7 -89 c-9 -138 -43 -290 -68 -311 -11 -10
-22 -16 -23 -15 -2 2 -8 51 -14 111 -10 99 -43 284 -57 321 -5 14 -2 15 19 7
14 -5 53 -13 87 -17z m-1751 -140 c46 -76 94 -174 89 -179 -5 -5 -221 -65
-223 -63 -1 2 -30 51 -65 110 l-62 108 78 86 78 86 29 -33 c16 -19 50 -70 76
-115z m-509 18 c-10 -51 -22 -134 -26 -185 l-7 -92 -14 40 c-17 48 -63 222
-63 240 0 11 120 98 127 92 1 -2 -6 -44 -17 -95z m1410 -104 c30 -99 60 -238
50 -238 -11 0 -171 152 -223 213 l-48 56 82 66 82 66 18 -45 c9 -25 27 -78 39
-118z m-130 129 c0 -2 -23 -20 -51 -41 -46 -36 -52 -38 -66 -23 -15 15 -15 17
8 25 13 6 40 17 59 25 35 15 50 20 50 14z m1315 -72 c-10 -96 -25 -136 -19
-50 6 81 12 115 20 115 4 0 3 -29 -1 -65z m-2715 -22 c7 -32 21 -85 31 -118
10 -32 17 -61 15 -62 -4 -4 -88 122 -109 164 -16 31 -16 32 11 52 15 11 30 21
33 21 3 0 12 -26 19 -57z m-228 -106 l-27 -41 -17 70 c-9 38 -17 82 -17 98 -1
27 2 25 43 -29 l45 -57 -27 -41z m1498 122 c7 -11 10 -22 8 -23 -220 -167
-457 -331 -465 -322 -4 4 -16 39 -28 79 -12 39 -24 81 -28 92 -6 19 7 25 156
74 89 30 200 69 247 87 47 18 88 33 92 34 4 0 12 -9 18 -21z m-910 -17 c0 -4
25 -50 55 -101 31 -52 54 -95 52 -97 -7 -7 -310 -65 -324 -62 -18 4 45 93 140
201 56 62 77 79 77 59z m2301 -112 c-6 -38 -22 -105 -36 -148 -23 -73 -31 -85
-92 -142 -60 -57 -167 -120 -202 -120 -17 0 -12 22 41 180 40 122 43 126 87
155 25 16 82 65 126 110 91 91 95 89 76 -35z m-2751 92 c0 -4 29 -52 65 -105
36 -53 62 -97 59 -97 -11 0 -138 97 -168 129 l-30 31 24 25 c23 24 50 33 50
17z m1525 -147 c16 -17 59 -56 94 -87 l63 -57 6 -89 5 -89 -59 -7 c-177 -19
-363 -25 -506 -16 -230 15 -214 9 -221 88 -3 37 -4 67 -4 68 13 5 309 213 382
268 l100 74 55 -61 c30 -34 68 -76 85 -92z m-1570 -14 c25 -51 45 -94 45 -95
0 -5 -81 11 -103 20 -19 7 -47 53 -47 77 0 14 52 99 57 93 2 -1 23 -44 48 -95z
m134 -50 c51 -32 59 -41 40 -41 -13 0 -40 -3 -59 -6 -35 -6 -35 -5 -67 60 -40
81 -41 87 -5 54 15 -14 56 -44 91 -67z m754 12 c44 -137 46 -127 -23 -167 -34
-20 -63 -36 -65 -36 -6 0 -158 211 -154 214 2 2 51 17 109 34 58 17 106 31
107 31 1 1 13 -34 26 -76z m-238 -41 c16 -26 51 -75 78 -110 26 -35 44 -68 41
-74 -10 -16 -76 -3 -211 42 -150 49 -281 110 -262 120 8 4 48 13 89 19 41 7
109 20 150 31 41 10 77 18 80 19 3 1 18 -20 35 -47z m1854 1 c0 -5 -7 -24 -14
-43 l-13 -35 -1 36 c-1 20 2 39 6 42 9 9 23 9 22 0z m-2489 -38 c43 -6 47 -10
83 -70 36 -61 37 -65 23 -97 -8 -18 -18 -44 -24 -58 -9 -24 -11 -22 -54 45
-25 39 -60 99 -77 133 -27 54 -29 63 -14 58 10 -2 38 -8 63 -11z m2433 -57
c-3 -42 -16 -95 -29 -125 l-23 -53 -77 0 c-42 0 -104 7 -138 16 -66 17 -178
55 -174 60 2 1 59 21 128 43 69 23 166 61 215 85 50 24 93 45 97 45 4 1 4 -32
1 -71z m-2265 12 c-17 -27 -33 -50 -34 -50 -4 0 -54 78 -54 84 0 6 38 13 82
15 l37 1 -31 -50z m66 -184 c3 -14 5 -26 2 -26 -2 0 -22 29 -45 64 l-42 64 27
54 28 53 12 -92 c6 -50 14 -103 18 -117z m176 146 c52 -21 133 -49 180 -62 47
-13 88 -26 92 -30 4 -3 -31 -25 -77 -48 l-85 -42 -118 116 c-64 64 -110 114
-102 111 8 -3 58 -23 110 -45z m1405 0 c62 -41 71 -50 61 -64 -9 -12 -99 -38
-132 -38 -1 0 -4 34 -6 75 -2 41 -1 75 0 75 2 0 37 -22 77 -48z m-1481 -155
c26 -43 46 -80 44 -81 -1 -1 -20 -7 -41 -13 -38 -12 -39 -11 -54 24 -17 42
-43 171 -43 216 0 31 1 30 23 -18 13 -28 45 -85 71 -128z m154 -37 c1 -3 -16
-13 -38 -20 -36 -12 -43 -12 -51 1 -22 32 -88 147 -109 189 -22 43 -18 40 86
-59 60 -57 110 -107 112 -111z m432 128 l0 -47 -37 6 c-39 6 -83 28 -83 41 0
4 24 21 52 39 61 36 68 32 68 -39z m1689 -83 c-29 -42 -84 -106 -123 -141 -69
-65 -126 -110 -126 -101 0 3 16 46 35 96 19 49 35 96 35 104 0 8 19 20 43 27
55 16 150 64 167 84 7 9 15 14 17 12 3 -3 -19 -39 -48 -81z m-2349 -115 c0
-13 -60 -13 -94 0 -14 5 -35 24 -46 42 -19 32 -19 47 2 115 l10 33 64 -90 c35
-49 64 -94 64 -100z m1781 141 c74 -30 219 -61 285 -61 19 0 34 -3 34 -6 0
-19 -136 -209 -191 -267 l-64 -68 -119 -29 c-113 -29 -346 -53 -346 -36 0 4
11 28 24 54 29 58 53 137 67 221 9 59 15 69 75 135 61 66 118 101 149 91 6 -2
44 -17 86 -34z m-1179 -52 c50 -55 56 -66 51 -93 -9 -49 -44 -126 -58 -126
-28 0 -312 186 -300 198 3 3 40 25 83 49 66 36 83 42 122 38 40 -4 51 -11 102
-66z m939 23 c-17 -22 -37 -45 -46 -52 -17 -14 -19 -4 -9 48 6 30 12 34 72 41
8 0 0 -16 -17 -37z m-901 18 c21 0 33 -26 22 -46 -6 -11 -15 -6 -42 22 -23 24
-28 35 -17 31 10 -4 27 -7 37 -7z m826 -52 c-6 -46 -14 -60 -59 -106 -58 -60
-273 -226 -306 -237 -15 -4 -37 3 -74 26 -80 49 -236 172 -296 232 -50 52 -53
57 -47 92 l7 36 97 -8 c125 -10 478 -7 562 5 36 5 78 10 94 11 l29 1 -7 -52z
m659 -65 c-9 -32 -32 -86 -51 -121 -31 -54 -43 -66 -96 -93 l-61 -31 27 34
c64 77 121 157 154 215 20 34 38 61 40 58 2 -2 -4 -30 -13 -62z m-1627 -119
c46 -25 81 -51 79 -57 -7 -22 -75 -68 -120 -82 l-45 -13 -43 36 c-46 39 -199
220 -199 234 0 5 19 17 42 27 l42 17 80 -57 c45 -32 118 -79 164 -105z m-300
34 c34 -42 87 -103 119 -134 l57 -57 -45 7 c-40 6 -55 18 -159 123 l-115 116
35 13 c19 7 38 12 41 11 4 -1 34 -37 67 -79z m527 41 c56 -57 156 -137 255
-204 l85 -57 -43 6 c-58 9 -197 54 -310 102 -71 30 -91 42 -85 54 3 8 16 43
27 77 12 35 23 63 26 63 3 0 24 -18 45 -41z m724 -36 c-13 -68 -37 -139 -71
-206 l-29 -59 -82 7 c-87 8 -157 29 -141 44 5 5 47 36 94 69 47 33 118 89 159
126 40 36 75 66 76 66 1 0 -2 -21 -6 -47z m-1407 -23 c32 -72 22 -70 -64 10
l-53 49 45 0 45 0 27 -59z m172 -138 c-1 -2 -22 7 -46 19 -36 17 -51 34 -78
83 l-33 61 80 -80 c43 -44 78 -81 77 -83z m456 33 c28 -14 116 -47 196 -74
l146 -48 -49 -21 c-94 -40 -205 -73 -266 -78 l-62 -6 -85 57 c-122 82 -120 79
-69 103 24 11 62 36 84 55 22 20 44 36 48 37 4 0 30 -11 57 -25z m1304 -47
c-15 -37 -190 -148 -233 -148 -29 0 191 149 236 159 1 1 0 -5 -3 -11z m-1742
-22 c26 -8 72 -35 102 -60 31 -25 65 -50 77 -56 37 -21 13 -21 -40 -1 -47 18
-173 99 -186 121 -8 12 -9 13 47 -4z m187 -40 c9 -8 49 -37 90 -65 70 -48 73
-51 43 -51 -21 0 -59 19 -121 61 -50 33 -91 62 -91 65 0 10 65 3 79 -10z
m1336 -32 c-16 -14 -49 -37 -73 -51 -41 -24 -48 -25 -155 -20 -116 5 -192 21
-182 38 4 5 33 9 66 9 81 0 235 18 295 34 73 20 83 18 49 -10z m-653 5 c63
-13 188 -59 188 -70 0 -9 -84 -71 -125 -92 -17 -8 -59 -23 -94 -32 -60 -15
-69 -15 -140 0 -42 10 -112 31 -156 48 l-80 31 62 13 c69 14 269 89 278 104 7
11 3 11 67 -2z m213 -29 c8 -13 -15 -13 -35 0 -12 8 -11 10 7 10 12 0 25 -4
28 -10z m190 -78 l80 -8 -80 -31 c-96 -37 -209 -62 -319 -69 l-81 -6 70 36
c39 19 87 52 108 74 l38 39 52 -14 c29 -8 88 -17 132 -21z m-760 -56 c44 -19
75 -36 69 -36 -16 0 -180 57 -201 70 -41 26 55 1 132 -34z"/>
</g>
</svg>
